<?xml version="1.0" encoding="UTF-8"?>
<svg xmlns="http://www.w3.org/2000/svg" width="1677" height="478" viewBox="0 0 1677 478" fill="none">
  <g clip-path="url(#clip0_36_15)">
    <path d="M267.678 216.319C252.523 203.962 234.758 193.598 214.283 185.228C193.809 176.857 174.739 172.672 156.873 172.672C145.331 172.672 133.287 173.768 120.842 175.96C108.797 178.153 98.56 182.338 90.1294 188.516C81.6989 194.296 77.4832 202.866 77.4832 214.326C77.4832 224.889 81.6989 233.559 90.1294 240.135C98.56 246.314 109.701 251.395 123.451 255.382C137.703 259.368 153.26 263.155 170.121 266.642C186.983 270.13 203.443 274.415 219.502 279.198C235.963 283.583 250.616 289.761 263.563 297.733C276.912 305.207 287.551 314.972 295.581 326.931C303.609 338.39 307.624 353.039 307.624 370.676C307.624 393.596 300.699 413.028 286.948 428.972C273.6 444.916 255.835 456.974 233.553 465.444C211.774 473.815 187.987 478 162.193 478C130.578 478 100.568 473.316 72.0634 464.049C43.5592 454.284 19.5715 437.94 0 415.021L46.6706 373.965C60.9227 388.514 77.3832 400.273 96.0512 409.042C115.221 417.412 137.402 421.598 162.795 421.598C173.935 421.598 185.478 420.303 197.522 417.612C209.566 414.922 219.803 410.537 228.234 404.358C236.665 397.782 240.88 388.713 240.88 377.154C240.88 366.99 236.665 358.818 228.234 352.64C219.803 346.462 208.462 341.579 194.209 338.091C179.958 334.105 164.601 330.618 148.141 327.528C124.154 322.247 101.471 316.068 80.0928 308.994C58.7146 301.52 41.3511 290.658 28.0023 276.507C15.055 261.959 8.63155 241.829 8.63155 216.219C8.63155 195.89 15.055 178.253 28.0023 163.205C41.3511 148.158 59.116 136.698 81.3972 128.726C103.679 120.355 128.068 116.17 154.766 116.17C171.627 116.17 189.493 118.163 208.161 122.149C226.829 125.637 244.594 131.616 261.556 140.087C278.92 148.059 293.573 158.621 305.617 171.875L267.578 216.219L267.678 216.319Z" fill="#4758EB"></path>
    <path d="M462.149 339.381C469.672 349.931 478.598 360.978 488.829 372.423C499.46 383.869 511.897 393.623 526.14 401.584C540.783 409.546 557.432 413.528 576.188 413.528C592.236 413.528 607.983 410.442 623.529 404.272C639.576 398.101 652.916 388.348 663.548 375.111C674.179 361.873 679.595 344.855 679.595 324.154C679.595 305.144 675.182 290.016 666.255 278.471C657.329 266.528 645.995 258.168 632.254 253.291C618.914 248.016 604.873 245.329 590.23 245.329C576.489 245.329 563.35 247.121 550.913 250.604C538.476 253.689 526.942 257.173 516.21 261.154L494.245 212.187L631.652 72.5524H432.26V6.56694H726.334L739.673 41.0028L604.974 179.94C630.75 179.94 654.52 186.111 676.285 198.452C698.05 210.395 715.602 226.917 728.942 248.116C742.281 269.314 748.901 293.101 748.901 319.576C748.901 351.324 740.676 379.092 724.227 402.978C708.18 426.366 686.917 444.48 660.238 457.22C634.06 470.058 605.074 476.428 573.58 476.428C545.999 476.428 521.827 472.248 500.864 463.887C480.404 455.029 462.45 443.186 446.904 428.158C431.759 413.13 418.219 396.608 406.183 378.495L462.149 339.481V339.381Z" fill="#4758EB"></path>
    <path d="M1023.65 476.328C992.101 476.328 963.25 469.477 937.104 455.874C910.958 442.272 890.026 423.109 874.494 398.485C858.971 373.861 851.156 345.464 851.156 313.294C851.156 291.252 855.365 268.415 863.775 244.685C872.692 220.458 884.014 196.529 897.736 172.699C911.963 148.473 926.787 125.834 942.311 104.686L1013.54 6.28947H1089.47L1092.17 12.8426L1000.31 134.969C993.203 144.7 986.089 154.728 978.975 165.352C988.294 161.38 998.306 158.501 1008.93 156.813C1019.54 154.629 1030.87 153.536 1042.89 153.536C1070.84 153.536 1096.38 160.388 1119.52 173.99C1143.06 187.593 1161.69 205.862 1175.42 228.798C1189.14 251.635 1196.05 276.954 1196.05 304.755C1196.05 336.031 1188.94 364.627 1174.71 390.541C1160.99 416.457 1141.16 437.407 1115.41 453.293C1089.67 468.683 1059.02 476.428 1023.45 476.428L1023.65 476.328ZM1023.65 410.301C1041.88 410.301 1058.71 406.528 1074.24 399.081C1090.26 391.138 1102.89 379.918 1112.2 365.421C1121.92 350.925 1126.83 333.549 1126.83 313.294C1126.83 297.904 1122.42 283.11 1113.51 269.11C1105.1 254.614 1093.27 242.699 1078.25 233.465C1063.12 224.231 1045.39 219.565 1024.96 219.565C1003.21 219.565 984.584 223.933 969.061 232.77C953.529 241.607 941.514 253.025 933.096 267.125C924.686 281.224 920.478 296.415 920.478 312.699C920.478 329.876 924.485 345.96 932.493 360.854C940.91 375.35 952.933 387.265 968.457 396.499C983.981 405.733 1002.42 410.4 1023.75 410.4L1023.65 410.301Z" fill="#4758EB"></path>
    <path d="M1491.39 478C1450.41 478 1415.96 467.847 1387.84 447.539C1360.21 426.834 1339.32 398.563 1325.06 362.827C1310.8 327.09 1303.67 286.078 1303.67 239.69C1303.67 193.302 1310.8 152.29 1325.06 116.554C1339.32 80.8168 1360.21 52.8449 1387.84 32.5378C1415.86 11.8325 1450.41 1.47987 1491.39 1.47987C1532.37 1.47987 1565.72 11.8325 1592.83 32.5378C1620.46 52.8449 1641.35 80.8168 1655.61 116.554C1669.87 152.29 1677 193.302 1677 239.69C1677 286.078 1669.87 327.09 1655.61 362.827C1641.35 398.563 1620.46 426.834 1592.83 447.539C1565.72 467.847 1531.86 478 1491.39 478ZM1491.39 413.097C1527.44 413.097 1555.67 398.066 1576.16 368.103C1596.65 338.14 1606.9 295.336 1606.9 239.69C1606.9 184.045 1596.65 141.34 1576.16 111.278C1555.67 81.3148 1527.44 66.2834 1491.39 66.2834C1455.33 66.2834 1424.8 81.3148 1403.91 111.278C1383.42 141.241 1373.18 184.045 1373.18 239.69C1373.18 295.336 1383.42 338.04 1403.91 368.103C1424.8 398.066 1454.02 413.097 1491.39 413.097Z" fill="#4758EB"></path>
    <path opacity="0.65" d="M432.317 73.9938H709.088L739.941 42.4035L726.575 8.13931H432.317V73.9938Z" fill="#4758EB"></path>
  </g>
  <defs>
    <clipPath id="clip0_36_15">
      <rect width="1677" height="478" fill="white"></rect>
    </clipPath>
  </defs>
</svg>
